<svg xmlns="http://www.w3.org/2000/svg" viewBox="0 0 512 512">
  <defs>
    <linearGradient id="grad1" x1="0%" y1="0%" x2="100%" y2="100%">
      <stop offset="0%" style="stop-color:#3b82f6;stop-opacity:1" />
      <stop offset="100%" style="stop-color:#1d4ed8;stop-opacity:1" />
    </linearGradient>
    <linearGradient id="grad2" x1="0%" y1="0%" x2="0%" y2="100%">
      <stop offset="0%" style="stop-color:#60a5fa;stop-opacity:1" />
      <stop offset="100%" style="stop-color:#3b82f6;stop-opacity:1" />
    </linearGradient>
  </defs>

  <!-- Background circle -->
  <circle cx="256" cy="256" r="240" fill="url(#grad1)"/>

  <!-- Database cylinder - top ellipse -->
  <ellipse cx="256" cy="140" rx="120" ry="40" fill="#e0f2fe" opacity="0.95"/>

  <!-- Database cylinder - body -->
  <path d="M136 140 L136 320 Q136 360 256 360 Q376 360 376 320 L376 140 Q376 180 256 180 Q136 180 136 140"
        fill="url(#grad2)" opacity="0.9"/>

  <!-- Middle stripe 1 -->
  <path d="M136 200 Q136 240 256 240 Q376 240 376 200"
        stroke="#e0f2fe" stroke-width="3" fill="none" opacity="0.6"/>

  <!-- Middle stripe 2 -->
  <path d="M136 260 Q136 300 256 300 Q376 300 376 260"
        stroke="#e0f2fe" stroke-width="3" fill="none" opacity="0.6"/>

  <!-- Bottom curve -->
  <path d="M136 320 Q136 360 256 360 Q376 360 376 320"
        stroke="#1e40af" stroke-width="3" fill="none" opacity="0.5"/>

  <!-- Highlight on top -->
  <ellipse cx="256" cy="140" rx="100" ry="30" fill="#ffffff" opacity="0.3"/>
</svg>
