<svg xmlns="http://www.w3.org/2000/svg" viewBox="0 0 512 512">
  <defs>
    <linearGradient id="grad1" x1="0%" y1="0%" x2="100%" y2="100%">
      <stop offset="0%" style="stop-color:#3b82f6;stop-opacity:1" />
      <stop offset="100%" style="stop-color:#1d4ed8;stop-opacity:1" />
    </linearGradient>
    <linearGradient id="grad2" x1="0%" y1="0%" x2="0%" y2="100%">
      <stop offset="0%" style="stop-color:#60a5fa;stop-opacity:1" />
      <stop offset="100%" style="stop-color:#3b82f6;stop-opacity:1" />
    </linearGradient>
  </defs>

  <!-- Background rounded rect - macOS style ~22% corner radius -->
  <rect x="50" y="50" width="412" height="412" rx="90" ry="90" fill="url(#grad1)"/>

  <!-- Database cylinder -->
  <!-- Top ellipse -->
  <ellipse cx="256" cy="156" rx="103" ry="34" fill="#e0f2fe" opacity="0.95"/>

  <!-- Body -->
  <path d="M153 156 L153 311 Q153 345 256 345 Q359 345 359 311 L359 156 Q359 190 256 190 Q153 190 153 156"
        fill="url(#grad2)" opacity="0.9"/>

  <!-- Middle stripe 1 -->
  <path d="M153 208 Q153 242 256 242 Q359 242 359 208"
        stroke="#e0f2fe" stroke-width="2.5" fill="none" opacity="0.6"/>

  <!-- Middle stripe 2 -->
  <path d="M153 260 Q153 294 256 294 Q359 294 359 260"
        stroke="#e0f2fe" stroke-width="2.5" fill="none" opacity="0.6"/>

  <!-- Bottom curve -->
  <path d="M153 311 Q153 345 256 345 Q359 345 359 311"
        stroke="#1e40af" stroke-width="2.5" fill="none" opacity="0.5"/>

  <!-- Highlight on top -->
  <ellipse cx="256" cy="156" rx="86" ry="26" fill="#ffffff" opacity="0.3"/>
</svg>
